<svg width="29" height="44" viewBox="0 0 29 44" fill="none" xmlns="http://www.w3.org/2000/svg">
<path d="M15.2304 12.322L15.2263 12.3154L15.222 12.3088C14.9424 11.8846 14.5214 11.6055 14.036 11.6055C13.5507 11.6055 13.1298 11.8845 12.8502 12.3086C12.8501 12.3087 12.8501 12.3088 12.85 12.3088L7.38419 20.5578L7.38352 20.5588C7.1117 20.9713 6.9965 21.5045 6.9965 22C6.9965 22.4955 7.1117 23.0287 7.38352 23.4412L7.3842 23.4422L12.85 31.6912C12.8501 31.6912 12.8501 31.6913 12.8502 31.6914C13.1298 32.1155 13.5507 32.3945 14.036 32.3945C14.5214 32.3945 14.9424 32.1154 15.222 31.6912L15.222 31.6912L15.2262 31.6847C15.4971 31.2595 15.6199 30.7383 15.6199 30.239C15.6199 29.7397 15.4971 29.2185 15.2262 28.7933L15.2263 28.7933L15.221 28.7853L12.141 24.15H20.416C20.9435 24.15 21.3528 23.8255 21.6068 23.4366C21.8629 23.0444 22.0035 22.5338 22.0035 22C22.0035 21.4571 21.8638 20.9451 21.6056 20.5533C21.3482 20.1629 20.9379 19.85 20.416 19.85H12.1389L15.2215 15.1919L15.222 15.1912C15.4886 14.7866 15.6235 14.2463 15.6235 13.75C15.6235 13.2474 15.4847 12.7355 15.2304 12.322ZM20.4305 0.5C22.8053 0.5 24.8018 1.65087 26.2229 3.71374C27.6526 5.789 28.5 8.79441 28.5 12.452V31.526C28.5 35.1847 27.6526 38.1959 26.2226 40.2765C24.8011 42.3449 22.8046 43.5 20.4305 43.5H8.584C6.2022 43.5 4.20213 42.3445 2.77903 40.2763C1.34738 38.1958 0.5 35.1847 0.5 31.526V12.452C0.5 8.79439 1.34736 5.78912 2.77871 3.71397C4.20143 1.65134 6.20142 0.5 8.584 0.5H20.4305Z" fill="#051130" stroke="white"/>
</svg>
