<svg width="29" height="44" viewBox="0 0 29 44" fill="none" xmlns="http://www.w3.org/2000/svg">
<path d="M13.779 15.2147L16.859 19.85H8.584C8.0565 19.85 7.64718 20.1745 7.39324 20.5634C7.13708 20.9556 6.9965 21.4662 6.9965 22C6.9965 22.5429 7.13622 23.0549 7.3944 23.4467C7.65175 23.8371 8.06206 24.15 8.584 24.15H16.8611L13.7785 28.8081L13.778 28.8088C13.5114 29.2134 13.3765 29.7537 13.3765 30.25C13.3765 30.7526 13.5153 31.2645 13.7696 31.678L13.7737 31.6846L13.778 31.6912C14.0576 32.1154 14.4786 32.3945 14.964 32.3945C15.4493 32.3945 15.8702 32.1155 16.1498 31.6914C16.1499 31.6913 16.1499 31.6912 16.15 31.6912L21.6158 23.4422L21.6165 23.4412C21.8883 23.0287 22.0035 22.4955 22.0035 22C22.0035 21.5045 21.8883 20.9713 21.6165 20.5588L21.6158 20.5578L16.15 12.3088C16.1499 12.3088 16.1499 12.3087 16.1498 12.3086C15.8702 11.8845 15.4493 11.6055 14.964 11.6055C14.4786 11.6055 14.0576 11.8846 13.778 12.3088L13.778 12.3088L13.7738 12.3153C13.5029 12.7405 13.3801 13.2617 13.3801 13.761C13.3801 14.2603 13.5029 14.7815 13.7738 15.2067L13.7737 15.2067L13.779 15.2147ZM20.416 0.5C22.7978 0.5 24.7979 1.65554 26.221 3.72368C27.6526 5.80425 28.5 8.81526 28.5 12.474V31.548C28.5 35.2056 27.6526 38.2109 26.2213 40.286C24.7986 42.3487 22.7986 43.5 20.416 43.5H8.5695C6.19466 43.5 4.19822 42.3491 2.77706 40.2863C1.34736 38.211 0.5 35.2056 0.5 31.548V12.474C0.5 8.81528 1.34737 5.80413 2.77738 3.72345C4.19893 1.65507 6.19545 0.5 8.5695 0.5H20.416Z" fill="#E81D66" stroke="white"/>
</svg>
