<svg width="24" height="29" viewBox="0 0 24 29" fill="none" xmlns="http://www.w3.org/2000/svg">
<path d="M11.4523 0C15.4893 0 18.7618 3.79822 18.7618 8.48351C18.7618 13.1688 15.4892 16.967 11.4523 16.967C7.41537 16.967 4.14278 13.1688 4.14278 8.48351C4.14773 3.80051 7.41734 0.00573904 11.4518 0H11.4523ZM11.4523 14.4496C14.2913 14.4496 16.5928 11.7785 16.5928 8.48351C16.5928 5.18851 14.2913 2.51737 11.4523 2.51737C8.61329 2.51737 6.31179 5.18851 6.31179 8.48351C6.31489 11.7771 8.61453 14.4461 11.452 14.4496H11.4523ZM2.16901 28.9496H0V26.5455V26.5367C0 20.4648 3.51133 15.3447 8.30581 13.7625L8.38644 13.7397L8.96559 16.1652C5.01744 17.4757 2.17508 21.6238 2.16903 26.5434V26.5442L2.16901 28.9496ZM15.9801 16.8537H19.803C22.1199 16.8566 23.9975 19.0357 24 21.7245V24.1289C23.9999 25.4744 23.5313 26.6929 22.7733 27.5765L22.7734 27.5764C22.0199 28.4558 20.9768 29 19.8241 29H16.0343L14.9498 26.5959H7.89081L4.73711 22.9356L7.88866 19.2578H14.8956L15.9801 16.8537ZM19.8138 26.4826H19.8241C20.3769 26.4826 20.8774 26.2229 21.2399 25.8029C21.6052 25.3769 21.831 24.7895 21.831 24.1409V24.1388V24.139V21.7248C21.8297 20.4255 20.9225 19.3725 19.8031 19.3711H17.2923L16.2078 21.7752H8.79094L7.8008 22.9306L8.78987 24.0786H16.2631L17.3476 26.4827L19.8138 26.4826ZM12.5368 25.3372H10.3678V22.9332H12.5368L12.5368 25.3372ZM20.8332 24.1289H18.6642V21.7248H20.8332V24.1289Z" fill="white"/>
</svg>
