<svg width="24" height="29" viewBox="0 0 24 29" fill="none" xmlns="http://www.w3.org/2000/svg">
<path d="M8.78264 2.83047e-05C13.6332 2.83047e-05 17.5653 4.94033 17.5653 11.0345C17.5653 17.1286 13.6332 22.0689 8.78269 22.0689C3.93212 22.0689 0 17.1286 0 11.0345C0.00577049 4.94325 3.93446 0.00724999 8.78212 0H8.78269L8.78264 2.83047e-05ZM8.78264 19.5147C12.5104 19.5147 15.5323 15.718 15.5323 11.0345C15.5323 6.35094 12.5104 2.55432 8.78264 2.55432C5.05493 2.55432 2.03302 6.35102 2.03302 11.0345C2.03764 15.7157 5.0568 19.5089 8.78224 19.5147H8.78269L8.78264 19.5147ZM21.6416 29L13.4007 18.6424L14.8381 16.8366L23.082 27.1903L21.6416 29Z" fill="white"/>
</svg>
