<svg width="35" height="29" viewBox="0 0 35 29" fill="none" xmlns="http://www.w3.org/2000/svg">
<path d="M14.5579 21.6617C17.0078 21.6617 18.9939 23.3045 18.9939 25.3309C18.9939 27.3573 17.0079 29 14.558 29C12.108 29 10.122 27.3573 10.122 25.3309C10.122 23.3045 12.108 21.6617 14.5579 21.6617ZM14.5579 26.4783C15.3241 26.4783 15.9451 25.9646 15.9451 25.3309C15.9451 24.6972 15.324 24.1835 14.5579 24.1835C13.7918 24.1835 13.1707 24.6972 13.1707 25.3309C13.1707 25.9646 13.7918 26.4783 14.5579 26.4783ZM27.6524 21.6617C30.1023 21.6617 32.0884 23.3045 32.0884 25.3309C32.0884 27.3573 30.1023 29 27.6524 29C25.2025 29 23.2164 27.3573 23.2164 25.3309C23.2164 23.3045 25.2025 21.6617 27.6524 21.6617H27.6524ZM27.6524 26.4783C28.4185 26.4783 29.0396 25.9646 29.0396 25.3309C29.0396 24.6972 28.4185 24.1835 27.6524 24.1835C26.8862 24.1835 26.2652 24.6972 26.2652 25.3309C26.2652 25.9646 26.8862 26.4783 27.6524 26.4783ZM27.6219 24.1835H12.3769C9.52706 24.1835 7.21684 22.2726 7.21684 19.9154C7.21684 17.9383 8.8421 16.2752 11.0479 15.7903L11.0838 15.7836L6.77745 4.16086C6.40184 3.20244 5.33221 2.52168 4.07029 2.52168H0V0H4.07789C6.69479 0 8.91212 1.41472 9.67292 3.36996L9.68449 3.40437V3.41697L15.151 18.1692H12.3781C11.2121 18.1692 10.2668 18.951 10.2668 19.9155C10.2668 20.88 11.212 21.6618 12.3781 21.6618H27.622L27.6219 24.1835ZM31.7134 18.1691H13.0944V15.6474H29.4146L31.9512 8.30915V7.33832H10.1981V4.81656H35V8.66219L31.7134 18.1691Z" fill="white"/>
</svg>
